Simulation
nRows=24
nColumns=15
endheader
time  TH_x TH_y TH_z SC_y  SC_z  SC_x  AC_y  AC_z  AC_x  GH_y  GH_z  GH_yy  EL_x  PS_y
0.0  0.000000  0.000000  0.000000  -27.406347742953095  -0.9961505801892921  0.973919397669733  52.502202196613844  6.149629689462532  -4.648415906652299  25.207834749051635  13.924014898409832  18.36215763796184  27.056540993409605  0.000000
0.039  0.000000  0.000000  0.000000  -27.340565736957345  -0.6834491689958883  1.167236262123926  52.06526986106189  6.347379532320475  -4.752943577771238  24.38048945845511  14.27863881415542  18.98885232865803  26.6820475064493  0.000000
0.078  0.000000  0.000000  0.000000  -27.18106890085254  -0.5589316114802068  1.3076380057634398  51.77775339977676  6.22170952577504  -4.930624888713154  23.989202095530565  14.50780757667338  19.200414013593964  26.251324095262763  0.000000
0.11699999999999999  0.000000  0.000000  0.000000  -27.022243717570504  -0.5593823299969845  1.4234409143811761  51.66397120723648  5.9936736501828305  -5.080712167355765  23.929588067924602  14.662571170929711  19.07400535631333  25.8963484589812  0.000000
0.156  0.000000  0.000000  0.000000  -26.829458181517953  -0.6398423920061556  1.4935618580013152  51.66631564822955  5.796223422011434  -5.154424444765379  24.308404829249792  14.825701281794352  18.375265821423653  25.58671971505293  0.000000
0.195  0.000000  0.000000  0.000000  -26.663605514086182  -0.7565737483918901  1.5294175717622653  51.79844374805947  5.688746094886278  -5.150938128072599  25.262198027474756  15.119906101519705  16.961352939574418  25.327830287552548  0.000000
0.23399999999999999  0.000000  0.000000  0.000000  -26.52656678366114  -0.8619718480916064  1.5333766776141458  51.97721122449006  5.6850858948735965  -5.060468545927448  26.872703445267444  15.61780789531814  14.720293758747351  25.124106897694926  0.000000
0.273  0.000000  0.000000  0.000000  -26.45567374567866  -0.9362007474307342  1.529129610461807  52.19865753894659  5.774413165445473  -4.920509568109708  29.16271037952024  16.38947547743279  11.635765961478413  24.96835369519076  0.000000
0.312  0.000000  0.000000  0.000000  -26.44827677648315  -0.9647275552291937  1.5436934692859552  52.4198853894847  5.9322510425015675  -4.747827826232846  31.978903237637972  17.458710165570537  7.855830286205176  24.869753312644566  0.000000
0.351  0.000000  0.000000  0.000000  -26.485180788861914  -0.9491948419988566  1.6029686146249702  52.65334662270983  6.132122385965816  -4.559558924327913  35.03628964488359  18.827547669787922  3.670659829518031  24.81666705701243  0.000000
0.39  0.000000  0.000000  0.000000  -26.530810127987966  -0.8953733695588194  1.7231958038236022  52.89830019396046  6.356529682848893  -4.3565394109065  38.02627361576653  20.463892158768253  -0.6097276777475289  24.815919117314447  0.000000
0.429  0.000000  0.000000  0.000000  -26.551887925609652  -0.8115524860462847  1.910293148444217  53.16964380506174  6.595783846871483  -4.135992997431774  40.709568804574765  22.320879959441786  -4.724014371994937  24.859894710538555  0.000000
0.46799999999999997  0.000000  0.000000  0.000000  -26.523381476182088  -0.7053960584974249  2.158493733431302  53.464709808866516  6.853813005770471  -3.8939488038514116  42.972689007022936  24.344034845711413  -8.523303601542393  24.947167610892933  0.000000
0.507  0.000000  0.000000  0.000000  -26.433103147532933  -0.5770813686001879  2.4581046087362743  53.777600273248616  7.132291167213509  -3.626153828827421  44.803325230618746  26.483025955111692  -11.956864623535175  25.056225322601176  0.000000
0.546  0.000000  0.000000  0.000000  -26.283165928354215  -0.42498284911350015  2.8008007335385265  54.09291983916875  7.436953549529359  -3.3347668537351525  46.25876280985066  28.69297392336297  -15.046932639086673  25.169324828357876  0.000000
0.585  0.000000  0.000000  0.000000  -26.094626751137305  -0.24012315471728032  3.1827115640323775  54.39090009905671  7.766774267742112  -3.022568829184704  47.43429965892833  30.935944953849205  -17.86649713229685  25.264934816656986  0.000000
0.624  0.000000  0.000000  0.000000  -25.907556811925655  -0.013934646137936577  3.6037213305498517  54.65270284807911  8.11933324365443  -2.6993103776780223  48.45301521319952  33.18466979340425  -20.52922544791039  25.329902820195866  0.000000
0.663  0.000000  0.000000  0.000000  -25.765224367693804  0.26230011743731196  4.073102625011698  54.86343964333927  8.480060896449539  -2.3733651324899054  49.41755447848723  35.419096673320766  -23.131658880352205  25.351705651122362  0.000000
0.702  0.000000  0.000000  0.000000  -25.69619495576778  0.595433408513316  4.60503084546539  55.02117959850029  8.833921877320623  -2.050736053611693  50.385472720240955  37.62301600220419  -25.718632814848718  25.325717918056068  0.000000
0.741  0.000000  0.000000  0.000000  -25.697788463347415  0.9848673861283912  5.213992243644376  55.13413381585744  9.164681561490879  -1.7263179200906964  51.34058209191085  39.77879908987186  -28.245462758746385  25.25188695994296  0.000000
0.78  0.000000  0.000000  0.000000  -25.73956535511368  1.4215534724524304  5.905457327889356  55.216242304658245  9.464667448092925  -1.3916004488443607  52.2302719568464  41.869117865453745  -30.621831260371387  25.135117841596568  0.000000
0.819  0.000000  0.000000  0.000000  -25.789354106787904  1.8942661613511242  6.670600006512669  55.27764398706004  9.730783887482882  -1.0325506010412704  52.99753237831883  43.878503668468085  -32.751018392854164  24.986575385005345  0.000000
0.858  0.000000  0.000000  0.000000  -25.830832973871647  2.3913412405800885  7.486647566976763  55.32404825181721  9.966481685111084  -0.63991634982715  53.61270419398542  45.795445274580324  -34.581240368523495  24.824273739749994  0.000000
0.897  0.000000  0.000000  0.000000  -25.869718736315225  2.901103484619459  8.323020915418828  55.357075073529195  10.17605888578443  -0.20890291845351325  54.06831531860271  47.61144898458338  -36.103026733115996  24.67448274430006  0.000000
